<svg width="513" height="512" viewBox="0 0 513 512" fill="none" xmlns="http://www.w3.org/2000/svg">
<g id="Simplification">
<path id="Vector" d="M403 23C414.498 67.4588 425.794 111.967 437 156.5C445.162 188.937 453.338 221.37 461.705 253.754C467.799 277.344 473.777 300.963 479.727 324.59C479.922 325.365 480.117 326.139 480.318 326.938C484.497 343.536 488.672 360.136 492.843 376.737C494.164 381.994 495.485 387.251 496.807 392.507C497.862 396.704 498.916 400.901 499.969 405.098C500.781 408.333 501.594 411.568 502.407 414.803C502.713 416.02 503.018 417.236 503.332 418.489C504.788 424.269 506.267 430.04 507.803 435.799C508.086 436.861 508.368 437.922 508.659 439.015C509.184 440.983 509.715 442.949 510.253 444.914C510.484 445.78 510.715 446.645 510.954 447.537C511.157 448.283 511.36 449.029 511.569 449.798C512.048 452.243 512.073 454.514 512 457C500.347 460.284 488.667 463.411 476.926 466.363C475.344 466.763 473.763 467.162 472.181 467.562C468.056 468.605 463.93 469.645 459.804 470.685C453.273 472.331 446.742 473.98 440.212 475.629C438.609 476.034 437.007 476.439 435.404 476.843C426.852 479.001 418.304 481.172 409.767 483.388C409.038 483.577 408.308 483.767 407.557 483.961C404.12 484.853 400.683 485.749 397.248 486.648C396.054 486.959 394.86 487.27 393.63 487.591C392.063 488.001 392.063 488.001 390.465 488.419C388 489 388 489 386 489C376.983 454.165 368.067 419.304 359.281 384.41C359.03 383.413 359.03 383.413 358.774 382.397C356.181 372.098 353.591 361.799 351 351.5C348.198 340.359 345.395 329.218 342.59 318.078C342.42 317.405 342.251 316.733 342.077 316.04C336.466 293.759 330.794 271.495 325.045 249.249C319.168 226.5 313.396 203.725 307.656 180.941C307.378 179.836 307.378 179.836 307.094 178.708C303.128 162.964 299.167 147.218 295.209 131.472C293.962 126.51 292.714 121.548 291.467 116.586C290.629 113.256 289.792 109.925 288.956 106.595C288.032 102.914 287.107 99.2341 286.182 95.554C285.917 94.499 285.653 93.4441 285.381 92.3571C283.331 84.2147 281.164 76.1155 279 68C278.505 271.94 278.505 271.94 278 480C235.1 480 192.2 480 148 480C148 332.16 148 184.32 148 32C190.9 32 233.8 32 278 32C278.33 39.26 278.66 46.52 279 54C290.33 51.1402 301.659 48.2797 312.989 45.418C318.253 44.0883 323.517 42.7589 328.782 41.4302C334.877 39.8918 340.972 38.3524 347.066 36.8125C348.555 36.4365 348.555 36.4365 350.074 36.053C359.992 33.547 369.909 31.0333 379.812 28.4648C380.554 28.2725 381.296 28.0801 382.061 27.8819C385.447 27.0032 388.833 26.1212 392.217 25.2336C393.937 24.7854 393.937 24.7854 395.691 24.3281C397.171 23.94 397.171 23.94 398.68 23.5439C401 23 401 23 403 23Z" fill="#44C3A1"/>
<path id="Vector_2" d="M0 32C42.9 32 85.8 32 130 32C130 179.84 130 327.68 130 480C87.1 480 44.2 480 0 480C0 332.16 0 184.32 0 32Z" fill="#27A2DA"/>
<path id="Vector_3" d="M148 32C190.9 32 233.8 32 278 32C278 179.84 278 327.68 278 480C235.1 480 192.2 480 148 480C148 332.16 148 184.32 148 32Z" fill="#E46252"/>
<path id="Vector_4" d="M171 70C198.72 70 226.44 70 255 70C255 114.55 255 159.1 255 205C227.28 205 199.56 205 171 205C171 160.45 171 115.9 171 70Z" fill="#FEFCFC"/>
<path id="Vector_5" d="M390 66C390.415 67.7216 390.415 67.7216 390.839 69.478C391.889 73.8289 392.943 78.1787 393.998 82.5283C394.45 84.3936 394.901 86.2592 395.35 88.125C397.574 97.3492 399.827 106.552 402.422 115.68C405.809 127.616 408.646 139.692 411.562 151.75C412.686 156.391 413.811 161.032 414.941 165.672C415.208 166.768 415.475 167.863 415.749 168.992C417.439 175.879 419.262 182.692 421.351 189.47C422 192 422 192 422 196C400.713 201.999 379.363 207.765 357.875 213C356.642 213.303 355.409 213.606 354.139 213.917C352.998 214.192 351.856 214.467 350.68 214.75C349.677 214.992 348.674 215.235 347.64 215.484C345 216 345 216 341 216C340.63 214.506 340.63 214.506 340.253 212.981C339.314 209.189 338.372 205.398 337.429 201.608C337.026 199.985 336.624 198.362 336.222 196.739C334.141 188.326 332.009 179.939 329.641 171.602C326.051 158.91 323.046 146.066 319.937 133.25C318.721 128.234 317.501 123.218 316.277 118.203C315.989 117.021 315.701 115.838 315.404 114.62C313.665 107.535 311.81 100.522 309.631 93.5576C308.985 90.9396 308.878 88.6852 309 86C323.244 81.9093 337.595 78.3503 352 74.875C356.313 73.8339 360.626 72.789 364.937 71.7422C365.901 71.5109 366.865 71.2796 367.858 71.0412C373.246 69.7332 378.536 68.2712 383.811 66.5598C386 66 386 66 390 66Z" fill="#FDFEFE"/>
<path id="Vector_6" d="M23 71C50.39 71 77.78 71 106 71C106 115.22 106 159.44 106 205C78.61 205 51.22 205 23 205C23 160.78 23 116.56 23 71Z" fill="#FEFEFE"/>
<path id="Vector_7" d="M75.375 383.188C82.1988 387.031 87.4847 392.454 90 400C90.8594 408.754 90.2166 415.747 85 423C80.324 428.242 74.9761 431.588 67.9492 432.316C58.1773 432.666 52.2601 430.44 45 424C40.7048 417.73 37.9912 411.33 38.4883 403.664C40.1523 395.001 44.8513 388.959 52 384C59.5139 379.605 67.5629 379.497 75.375 383.188Z" fill="#657A8B"/>
<path id="Vector_8" d="M224.375 383.062C231.037 386.848 235.02 391.989 238 399C239.006 407.501 238.868 415.916 233.559 422.895C228.687 428.264 223.255 431.512 216.004 432.344C206.56 432.627 200.638 430.116 193.73 423.77C187.663 417.565 187.582 410.862 187.66 402.551C188.313 395.731 191.431 391.2 196.375 386.625C204.77 380.153 214.604 378.597 224.375 383.062Z" fill="#657A8B"/>
<path id="Vector_9" d="M440.922 377.879C447.97 381.115 452.004 385.607 455.875 392.188C458.014 399.435 458.144 406.346 455 413.313C451.715 419.091 447.366 423.613 441.176 426.164C434.387 427.951 426.102 428.392 419.563 425.5C413.105 421.578 408.051 415.237 406 408C404.939 399.596 406.06 392.963 411 386C418.999 377.201 429.428 374.421 440.922 377.879Z" fill="#657A8B"/>
<path id="Vector_10" d="M148 470C190.9 470 233.8 470 278 470C278 473.3 278 476.6 278 480C235.1 480 192.2 480 148 480C148 476.7 148 473.4 148 470Z" fill="#D05141"/>
<path id="Vector_11" d="M0 470C42.9 470 85.8 470 130 470C130 473.3 130 476.6 130 480C87.1 480 44.2 480 0 480C0 476.7 0 473.4 0 470Z" fill="#2C93BA"/>
<path id="Vector_12" d="M511 448C511.495 452.455 511.495 452.455 512 457C500.347 460.284 488.667 463.411 476.926 466.363C475.344 466.763 473.763 467.162 472.181 467.562C468.056 468.605 463.93 469.645 459.804 470.685C453.273 472.331 446.742 473.98 440.212 475.629C438.609 476.034 437.007 476.439 435.404 476.843C426.852 479.001 418.304 481.172 409.767 483.388C409.038 483.577 408.308 483.767 407.557 483.961C404.12 484.853 400.683 485.749 397.248 486.649C396.054 486.959 394.86 487.27 393.63 487.591C392.585 487.864 391.541 488.138 390.465 488.419C388 489 388 489 386 489C385.34 485.7 384.68 482.4 384 479C384.762 478.811 385.524 478.621 386.309 478.426C393.573 476.62 400.838 474.812 408.101 473.001C411.833 472.07 415.565 471.141 419.298 470.213C439.602 465.196 439.602 465.196 459.787 459.729C468.025 457.399 476.338 455.374 484.655 453.35C487.423 452.676 490.188 451.993 492.953 451.311C494.726 450.877 496.5 450.444 498.273 450.012C499.503 449.707 499.503 449.707 500.757 449.396C501.52 449.212 502.282 449.028 503.068 448.839C503.733 448.676 504.398 448.513 505.084 448.346C507 448 507 448 511 448Z" fill="#3DA69B"/>
<path id="Vector_13" d="M227.855 378.742C236.281 383.684 241.346 390.611 244 400C245.254 409.959 243.778 417.746 238 426C231.7 433.58 223.999 437.018 214.328 438.375C205.816 438.798 198.621 435.149 192 430C185.038 423.492 181.833 415.936 181.5 406.438C181.71 400.481 182.912 396.075 186 391C186.412 390.301 186.825 389.603 187.25 388.883C196.074 375.597 213.718 372.037 227.855 378.742ZM192.254 391.059C187.305 398.722 186.658 406.24 188.434 415.184C190.839 421.653 196.754 428.13 203 431C210.013 433.124 217.629 433.05 224.312 430C230.09 426.716 234.619 422.367 237.16 416.172C239.071 408.955 239.426 400.76 235.938 394C231.768 387.682 226.308 383.156 219 381C208.049 379.604 199.273 382.364 192.254 391.059Z" fill="#E7E8EB"/>
<path id="Vector_14" d="M444.945 373.746C445.962 374.367 445.962 374.367 447 375C447.699 375.424 448.397 375.848 449.117 376.285C454.746 380.098 459.353 385.303 461.633 391.805C463.278 401.641 462.909 410.692 457.828 419.441C452.807 426.468 446.459 431.019 438 433C428.799 434.121 421.718 433.215 414 428C413.343 427.566 412.685 427.131 412.008 426.684C406.103 422.236 403.294 415.882 401 409C400.195 399.514 400.585 392.09 406 384C406.578 383.093 407.155 382.185 407.75 381.25C417.626 371.374 432.008 366.946 444.945 373.746ZM411.625 385.375C406.862 391.554 405.361 397.194 405.594 404.938C406.665 413.012 410.827 418.5 416.938 423.625C423.933 428.289 432.372 427.989 440.445 426.57C446.613 424.611 450.852 420.301 454.324 414.965C457.879 408.093 458.464 400.605 456.117 393.223C452.885 386.106 448.49 382.137 441.938 378.125C430.731 373.926 419.538 376.825 411.625 385.375Z" fill="#E3ECEE"/>
<path id="Vector_15" d="M78 378C85.8112 382.822 92.1956 389.088 95 398C96.245 409.003 94.9625 417.94 88.875 427.25C81.661 434.15 73.68 437.742 63.75 438.438C55.7357 438.202 48.274 434.639 42.5 429.188C35.3035 421.273 33.4993 413.254 33.5977 402.746C34.4408 394.896 38.1002 388.392 43.8125 383C53.6172 375.448 66.2549 372.832 78 378ZM43.4063 391.973C38.9921 398.336 37.7954 404.414 39 412C41.687 419.972 45.4944 425.98 53 430C59.5265 433.101 66.9738 433.232 73.8594 431.125C81.0065 427.833 86.6958 422.656 89.5273 415.145C91.1374 407.84 91.1016 400.158 87.1992 393.641C82.8023 387.625 77.0216 383.434 70 381C58.9381 379.386 50.2702 383.279 43.4063 391.973Z" fill="#E4ECF0"/>
<path id="Vector_16" d="M404 176C404.66 178.64 405.32 181.28 406 184C391.827 187.971 377.65 191.911 363.375 195.5C362.37 195.755 361.364 196.009 360.328 196.272C359.403 196.502 358.477 196.732 357.523 196.969C356.718 197.169 355.913 197.37 355.083 197.576C353 198 353 198 350 198C349.34 195.03 348.68 192.06 348 189C355.008 187.138 362.019 185.288 369.033 183.446C371.418 182.818 373.802 182.187 376.185 181.554C379.614 180.644 383.045 179.743 386.477 178.844C387.539 178.559 388.602 178.275 389.697 177.982C394.554 176.719 398.932 175.605 404 176Z" fill="#EBF0F3"/>
<path id="Vector_17" d="M392 130C392.66 132.97 393.32 135.94 394 139C386.992 140.862 379.981 142.712 372.967 144.554C370.582 145.182 368.198 145.813 365.815 146.446C362.386 147.356 358.955 148.257 355.523 149.156C353.929 149.583 353.929 149.583 352.303 150.018C347.446 151.281 343.068 152.395 338 152C337.67 149.36 337.34 146.72 337 144C343.326 141.795 349.689 139.953 356.18 138.301C357.114 138.061 358.049 137.821 359.012 137.574C360.969 137.072 362.927 136.572 364.886 136.074C367.889 135.309 370.89 134.537 373.891 133.764C375.799 133.276 377.708 132.788 379.617 132.301C380.514 132.07 381.411 131.838 382.335 131.6C383.167 131.39 383.998 131.179 384.855 130.962C385.95 130.683 385.95 130.683 387.067 130.397C389 130 389 130 392 130Z" fill="#EBF0F3"/>
<path id="Vector_18" d="M387 108C387.495 111.96 387.495 111.96 388 116C376.685 119.249 365.307 122.25 353.908 125.191C352.3 125.606 350.693 126.022 349.086 126.438C346.797 127.03 344.508 127.619 342.219 128.207C341.521 128.388 340.822 128.569 340.103 128.756C335.23 130 335.23 130 333 130C332.34 127.03 331.68 124.06 331 121C341.47 117.937 351.993 115.102 362.554 112.371C364.33 111.91 366.106 111.445 367.88 110.977C370.474 110.293 373.071 109.62 375.668 108.949C376.462 108.738 377.255 108.527 378.073 108.309C383.658 106.886 383.658 106.886 387 108Z" fill="#EBF0F3"/>
<path id="Vector_19" d="M398 153C398.66 155.64 399.32 158.28 400 161C393.993 163.381 388.002 165.146 381.734 166.699C380.301 167.059 380.301 167.059 378.838 167.426C376.832 167.928 374.825 168.428 372.817 168.926C369.744 169.689 366.673 170.462 363.602 171.236C361.646 171.725 359.69 172.212 357.734 172.699C356.359 173.046 356.359 173.046 354.956 173.4C354.102 173.61 353.247 173.821 352.366 174.038C351.618 174.224 350.869 174.411 350.098 174.603C348 175 348 175 344 175C343.67 172.03 343.34 169.06 343 166C350.188 164.142 357.378 162.291 364.57 160.446C367.017 159.817 369.463 159.186 371.909 158.554C375.422 157.646 378.938 156.744 382.453 155.844C383.548 155.559 384.643 155.275 385.771 154.982C386.792 154.722 387.813 154.462 388.864 154.193C390.21 153.847 390.21 153.847 391.583 153.494C394 153 394 153 398 153Z" fill="#EBF0F3"/>
<path id="Vector_20" d="M381 85C381.495 88.96 381.495 88.96 382 93C375.902 95.4304 369.823 97.1664 363.445 98.6992C361.971 99.0591 361.971 99.0591 360.467 99.4262C358.405 99.9285 356.343 100.428 354.28 100.926C351.113 101.691 347.947 102.463 344.781 103.236C342.774 103.724 340.766 104.212 338.758 104.699C337.334 105.046 337.334 105.046 335.882 105.4C335.007 105.61 334.132 105.821 333.231 106.038C332.46 106.224 331.689 106.411 330.895 106.603C329 107 329 107 327 107C326.34 104.03 325.68 101.06 325 98C332.169 96.1402 339.341 94.2897 346.515 92.4458C348.955 91.8174 351.394 91.1869 353.833 90.5542C357.339 89.6451 360.847 88.7437 364.355 87.8437C365.445 87.5594 366.535 87.275 367.658 86.9821C368.678 86.7218 369.699 86.4615 370.751 86.1934C371.646 85.9624 372.541 85.7315 373.463 85.4935C376.04 84.9922 378.381 84.9101 381 85Z" fill="#EBF0F3"/>
<path id="Vector_21" d="M185 180C203.81 180 222.62 180 242 180C242 182.97 242 185.94 242 189C223.19 189 204.38 189 185 189C185 186.03 185 183.06 185 180Z" fill="#EBF0F3"/>
<path id="Vector_22" d="M36 180C54.81 180 73.62 180 93 180C93 182.97 93 185.94 93 189C74.19 189 55.38 189 36 189C36 186.03 36 183.06 36 180Z" fill="#EBF0F3"/>
<path id="Vector_23" d="M185 133C203.81 133 222.62 133 242 133C242 135.97 242 138.94 242 142C223.19 142 204.38 142 185 142C185 139.03 185 136.06 185 133Z" fill="#EBF0F3"/>
<path id="Vector_24" d="M36 133C54.81 133 73.62 133 93 133C93 135.97 93 138.94 93 142C74.19 142 55.38 142 36 142C36 139.03 36 136.06 36 133Z" fill="#EBF0F3"/>
<path id="Vector_25" d="M36 110C54.81 110 73.62 110 93 110C93 112.97 93 115.94 93 119C74.19 119 55.38 119 36 119C36 116.03 36 113.06 36 110Z" fill="#EBF0F3"/>
<path id="Vector_26" d="M185 86C203.81 86 222.62 86 242 86C242 88.97 242 91.94 242 95C223.19 95 204.38 95 185 95C185 92.03 185 89.06 185 86Z" fill="#EBF0F3"/>
<path id="Vector_27" d="M36 86C54.81 86 73.62 86 93 86C93 88.97 93 91.94 93 95C74.19 95 55.38 95 36 95C36 92.03 36 89.06 36 86Z" fill="#EBF0F3"/>
<path id="Vector_28" d="M185 110C203.81 110 222.62 110 242 110C242 112.64 242 115.28 242 118C241 119 241 119 238.754 119.12C237.761 119.118 236.769 119.116 235.746 119.114C234.625 119.113 233.504 119.113 232.349 119.113C230.519 119.106 230.519 119.106 228.652 119.098C227.411 119.096 226.169 119.095 224.89 119.093C221.584 119.089 218.278 119.08 214.972 119.069C211.6 119.058 208.229 119.054 204.857 119.049C198.238 119.038 191.619 119.021 185 119C185 116.03 185 113.06 185 110Z" fill="#EBF0F3"/>
<path id="Vector_29" d="M185 157C203.81 157 222.62 157 242 157C242 159.64 242 162.28 242 165C223.19 165 204.38 165 185 165C185 162.36 185 159.72 185 157Z" fill="#EBF0F3"/>
<path id="Vector_30" d="M36 157C54.81 157 73.62 157 93 157C93 159.64 93 162.28 93 165C74.19 165 55.38 165 36 165C36 162.36 36 159.72 36 157Z" fill="#EBF0F3"/>
</g>
</svg>
